<svg width="24" height="24" viewBox="0 0 24 24" fill="none" xmlns="http://www.w3.org/2000/svg">
<rect width="24" height="24" fill="white"/>
<path fill-rule="evenodd" clip-rule="evenodd" d="M6.37811 10.0209C6.37811 10.134 6.31438 10.2 6.20511 10.2H4.8393C4.73003 10.2 4.66629 10.134 4.66629 10.0209V5.20286C4.66629 5.15572 4.63898 5.12743 4.59345 5.12743H3.173C3.06374 5.12743 3 5.06143 3 4.94829V3.77915C3 3.66601 3.06374 3.60001 3.173 3.60001H7.91693C8.0262 3.60001 8.08994 3.66601 8.08994 3.77915V4.94829C8.08994 5.06143 8.0262 5.12743 7.91693 5.12743H6.45096C6.40543 5.12743 6.37811 5.15572 6.37811 5.20286V10.0209ZM10.3208 10.0209C10.3208 10.134 10.257 10.2 10.1478 10.2H8.78195C8.67268 10.2 8.60895 10.134 8.60895 10.0209V3.77915C8.60895 3.66601 8.67268 3.60001 8.78195 3.60001H10.1387C10.2297 3.60001 10.3026 3.63772 10.3481 3.72258L11.4498 5.58001C11.4772 5.63658 11.5318 5.63658 11.5591 5.58001L12.6609 3.72258C12.7064 3.63772 12.7792 3.60001 12.8703 3.60001H14.227C14.3363 3.60001 14.4 3.66601 14.4 3.77915V10.0209C14.4 10.134 14.3363 10.2 14.227 10.2H12.8612C12.7519 10.2 12.6882 10.134 12.6882 10.0209V6.69258C12.6882 6.61715 12.6335 6.60772 12.5971 6.66429L12.0326 7.63543C11.9871 7.72029 11.9142 7.75801 11.8232 7.75801H11.1858C11.0947 7.75801 11.0219 7.72029 10.9764 7.63543L10.4118 6.66429C10.3754 6.60772 10.3208 6.61715 10.3208 6.69258V10.0209Z" fill="#F16718"/>
</svg>
