<svg width="26" height="26" viewBox="0 0 26 26" fill="none" xmlns="http://www.w3.org/2000/svg">
<path d="M2.55775 12.1019C3.27153 11.3882 4.40545 11.3506 5.16345 11.9892L5.28617 12.1019L15.4276 22.2434C16.181 22.9968 16.181 24.2184 15.4276 24.9718C14.7138 25.6856 13.5799 25.7231 12.8219 25.0845L12.6992 24.9718L2.55775 14.8304C1.80432 14.0769 1.80432 12.8554 2.55775 12.1019Z" fill="#444444"/>
<path d="M23.1822 1.0171C24.1888 0.0213305 25.889 0.676543 25.9881 2.04255L25.9927 2.16867V12.905C25.9927 13.8044 25.2556 14.5336 24.3463 14.5336C23.4784 14.5336 22.7673 13.8692 22.7045 13.0265L22.7 12.905L22.6997 6.09989L14.6568 14.0566C13.6502 15.0523 11.95 14.3971 11.8509 13.0311L11.8463 12.905L11.846 6.09989L3.80319 14.0566C3.19409 14.6591 2.22645 14.6908 1.5796 14.1517L1.47488 14.0566C0.865779 13.4541 0.833721 12.4969 1.37871 11.857L1.47488 11.7534L12.3285 1.0171C13.3352 0.0213305 15.0354 0.676543 15.1345 2.04255L15.139 2.16867L15.1387 8.97268L23.1822 1.0171Z" fill="white"/>
</svg>
